<svg xmlns="http://www.w3.org/2000/svg" xmlns:xlink="http://www.w3.org/1999/xlink" xmlns:lucid="lucid" width="1858.42" height="754.51"><g transform="translate(-3358.4999999422203 -1495.9154865375588)" lucid:page-tab-id="0_0"><path d="M3940 1619.04a6 6 0 0 1 6-6h208a6 6 0 0 1 6 6v108a6 6 0 0 1-6 6h-208a6 6 0 0 1-6-6z" stroke="#000" stroke-width="3" fill="#fff"/><use xlink:href="#a" transform="matrix(1,0,0,1,3952,1625.035171170555) translate(-0.1790123456790269 39.111111111111114)"/><use xlink:href="#b" transform="matrix(1,0,0,1,3952,1625.035171170555) translate(47.84567901234568 65.77777777777777)"/><path d="M3957.14 1849.87a6 6 0 0 1 6-6h173.72a6 6 0 0 1 6 6v110.67a6 6 0 0 1-6 6h-173.72a6 6 0 0 1-6-6z" stroke="#5e5e5e" stroke-width="3" fill="#fff"/><use xlink:href="#c" transform="matrix(1,0,0,1,3969.138975750865,1855.8676207887731) translate(61.27777777777778 27.27777777777778)"/><use xlink:href="#d" transform="matrix(1,0,0,1,3969.138975750865,1855.8676207887731) translate(-2.580246913580268 53.94444444444445)"/><use xlink:href="#e" transform="matrix(1,0,0,1,3969.138975750865,1855.8676207887731) translate(29.055555555555557 80.61111111111111)"/><path d="M4050 1735.54v88.33" stroke="#5e5e5e" stroke-width="2" fill="none"/><path d="M4051 1735.56h-2v-1.02h2z" stroke="#5e5e5e" stroke-width=".05" fill="#5e5e5e"/><path d="M4050 1839.13l-4.64-14.26h9.28z" stroke="#5e5e5e" stroke-width="2" fill="#5e5e5e"/><path d="M4050 1969.04v90.32" stroke="#5e5e5e" stroke-width="2" fill="none"/><path d="M4051 1969.06h-2v-1.02h2z" stroke="#5e5e5e" stroke-width=".05" fill="#5e5e5e"/><path d="M4050 2074.63l-4.64-14.27h9.28z" stroke="#5e5e5e" stroke-width="2" fill="#5e5e5e"/><path d="M4090 2077.37c22.1 0 40 17.9 40 40s-17.9 40-40 40h-80c-22.1 0-40-17.9-40-40s17.9-40 40-40z" stroke="#5e5e5e" stroke-width="3" fill="#fff"/><use xlink:href="#f" transform="matrix(1,0,0,1,3981.9999999999995,2089.3675707887733) translate(41.14814814814815 21.27777777777778)"/><use xlink:href="#g" transform="matrix(1,0,0,1,3981.9999999999995,2089.3675707887733) translate(0.5617283950617349 47.94444444444444)"/><path d="M4415.42 2103.92a6 6 0 0 1 6-6h288a6 6 0 0 1 6 6v102a6 6 0 0 1-6 6h-288a6 6 0 0 1-6-6z" fill="#fff"/><path d="M4415.42 2103.92a6 6 0 0 1 6-6h288a6 6 0 0 1 6 6v102a6 6 0 0 1-6 6h-288a6 6 0 0 1-6-6zM4415.42 2137.92h300M4583.5 2137.92v74" stroke="#5e5e5e" stroke-width="3" fill="none"/><use xlink:href="#h" transform="matrix(1,0,0,1,4425.419329274142,2097.9225672098883) translate(56.512345679012356 24.444444444444443)"/><use xlink:href="#i" transform="matrix(1,0,0,1,4425.419329274142,2097.9225672098883) translate(105.83333333333334 24.444444444444443)"/><use xlink:href="#j" transform="matrix(1,0,0,1,4420.419329274142,2140.4225672098883) translate(51.75308641975309 20.444444444444443)"/><use xlink:href="#k" transform="matrix(1,0,0,1,4588.498156267895,2140.4225672098883) translate(32.04938271604939 20.444444444444443)"/><use xlink:href="#l" transform="matrix(1,0,0,1,4420.419329274142,2177.4225672098883) translate(12.987654320987659 20.444444444444443)"/><use xlink:href="#k" transform="matrix(1,0,0,1,4588.498156267895,2177.4225672098883) translate(32.04938271604939 20.444444444444443)"/><path d="M4412.92 2117.92H4273a.28.28 0 0 1-.3-.28.28.28 0 0 0-.27-.27H4150" stroke="#5e5e5e" stroke-width="2" fill="none"/><path d="M4413.92 2118.92h-1.03v-2h1.02z" stroke="#5e5e5e" stroke-width=".05" fill="#5e5e5e"/><path d="M4134.74 2117.37l14.26-4.64v9.27z" stroke="#5e5e5e" stroke-width="2" fill="#5e5e5e"/><path d="M4875.42 2103.92a6 6 0 0 1 6-6h328a6 6 0 0 1 6 6v139a6 6 0 0 1-6 6h-328a6 6 0 0 1-6-6z" fill="#fff"/><path d="M4875.42 2103.92a6 6 0 0 1 6-6h328a6 6 0 0 1 6 6v139a6 6 0 0 1-6 6h-328a6 6 0 0 1-6-6zM4875.42 2137.92h340M4991.35 2137.92v111" stroke="#5e5e5e" stroke-width="3" fill="none"/><use xlink:href="#m" transform="matrix(1,0,0,1,4885.419329274142,2097.9225672098883) translate(74.9074074074074 24.444444444444443)"/><use xlink:href="#i" transform="matrix(1,0,0,1,4885.419329274142,2097.9225672098883) translate(127.43827160493828 24.444444444444443)"/><use xlink:href="#n" transform="matrix(1,0,0,1,4880.419329274142,2140.4225672098883) translate(44.388888888888886 20.444444444444443)"/><use xlink:href="#o" transform="matrix(1,0,0,1,4996.3448690846335,2140.4225672098883) translate(82.80864197530865 20.444444444444443)"/><use xlink:href="#j" transform="matrix(1,0,0,1,4880.419329274142,2177.4225672098883) translate(25.25308641975309 20.444444444444443)"/><use xlink:href="#k" transform="matrix(1,0,0,1,4996.3448690846335,2177.4225672098883) translate(78.5493827160494 20.444444444444443)"/><use xlink:href="#p" transform="matrix(1,0,0,1,4880.419329274142,2214.4225672098883) translate(16.055555555555557 20.444444444444443)"/><use xlink:href="#q" transform="matrix(1,0,0,1,4996.3448690846335,2214.4225672098883) translate(7.407407407407419 20.444444444444443)"/><use xlink:href="#r" transform="matrix(1,0,0,1,4996.3448690846335,2214.4225672098883) translate(136.7283950617284 20.444444444444443)"/><path d="M4872.92 2117.92h-137.5" stroke="#5e5e5e" stroke-width="2" fill="none"/><path d="M4873.92 2118.92h-1.03v-2h1.02z" stroke="#5e5e5e" stroke-width=".05" fill="#5e5e5e"/><path d="M4720.15 2117.92l14.27-4.63v9.26z" stroke="#5e5e5e" stroke-width="2" fill="#5e5e5e"/><path d="M4415.42 1903.75a6 6 0 0 1 6-6h288a6 6 0 0 1 6 6v102a6 6 0 0 1-6 6h-288a6 6 0 0 1-6-6z" fill="#fff"/><path d="M4415.42 1903.75a6 6 0 0 1 6-6h288a6 6 0 0 1 6 6v102a6 6 0 0 1-6 6h-288a6 6 0 0 1-6-6zM4415.42 1937.75h300M4583.5 1937.75v74" stroke="#5e5e5e" stroke-width="3" fill="none"/><use xlink:href="#h" transform="matrix(1,0,0,1,4425.419329274142,1897.7535403259328) translate(48.11728395061729 24.444444444444443)"/><use xlink:href="#s" transform="matrix(1,0,0,1,4425.419329274142,1897.7535403259328) translate(97.43827160493828 24.444444444444443)"/><use xlink:href="#j" transform="matrix(1,0,0,1,4420.419329274142,1940.2535403259328) translate(51.75308641975309 20.444444444444443)"/><use xlink:href="#k" transform="matrix(1,0,0,1,4588.498156267895,1940.2535403259328) translate(32.04938271604939 20.444444444444443)"/><use xlink:href="#t" transform="matrix(1,0,0,1,4420.419329274142,1977.2535403259328) translate(41.907407407407405 20.444444444444443)"/><use xlink:href="#k" transform="matrix(1,0,0,1,4588.498156267895,1977.2535403259328) translate(32.04938271604939 20.444444444444443)"/><path d="M4415.42 1703.6a6 6 0 0 1 6-6h288a6 6 0 0 1 6 6v102a6 6 0 0 1-6 6h-288a6 6 0 0 1-6-6z" fill="#fff"/><path d="M4415.42 1703.6a6 6 0 0 1 6-6h288a6 6 0 0 1 6 6v102a6 6 0 0 1-6 6h-288a6 6 0 0 1-6-6zM4415.42 1737.6h300M4583.5 1737.6v74" stroke="#5e5e5e" stroke-width="3" fill="none"/><use xlink:href="#h" transform="matrix(1,0,0,1,4425.419329274142,1697.5845134419776) translate(87.03703703703704 24.444444444444443)"/><use xlink:href="#u" transform="matrix(1,0,0,1,4425.419329274142,1697.5845134419776) translate(136.35802469135803 24.444444444444443)"/><use xlink:href="#j" transform="matrix(1,0,0,1,4420.419329274142,1740.0845134419776) translate(51.75308641975309 20.444444444444443)"/><use xlink:href="#k" transform="matrix(1,0,0,1,4588.498156267895,1740.0845134419776) translate(32.04938271604939 20.444444444444443)"/><use xlink:href="#v" transform="matrix(1,0,0,1,4420.419329274142,1777.0845134419776) translate(26.50617283950617 20.444444444444443)"/><use xlink:href="#k" transform="matrix(1,0,0,1,4588.498156267895,1777.0845134419776) translate(32.04938271604939 20.444444444444443)"/><path d="M4415.42 1503.4a6 6 0 0 1 6-6h288a6 6 0 0 1 6 6v65a6 6 0 0 1-6 6h-288a6 6 0 0 1-6-6z" fill="#fff"/><path d="M4415.42 1503.4a6 6 0 0 1 6-6h288a6 6 0 0 1 6 6v65a6 6 0 0 1-6 6h-288a6 6 0 0 1-6-6zM4415.42 1537.4h300M4583.5 1537.4v37" stroke="#5e5e5e" stroke-width="3" fill="none"/><use xlink:href="#h" transform="matrix(1,0,0,1,4425.419329274142,1497.4154865580224) translate(66.23456790123456 24.444444444444443)"/><use xlink:href="#w" transform="matrix(1,0,0,1,4425.419329274142,1497.4154865580224) translate(115.55555555555554 24.444444444444443)"/><use xlink:href="#j" transform="matrix(1,0,0,1,4420.419329274142,1539.9154865580224) translate(51.75308641975309 20.444444444444443)"/><use xlink:href="#k" transform="matrix(1,0,0,1,4588.498156267895,1539.9154865580224) translate(32.04938271604939 20.444444444444443)"/><path d="M4875.42 1903.75a6 6 0 0 1 6-6h328a6 6 0 0 1 6 6v139a6 6 0 0 1-6 6h-328a6 6 0 0 1-6-6z" fill="#fff"/><path d="M4875.42 1903.75a6 6 0 0 1 6-6h328a6 6 0 0 1 6 6v139a6 6 0 0 1-6 6h-328a6 6 0 0 1-6-6zM4875.42 1937.75h340M4991.35 1937.75v111" stroke="#5e5e5e" stroke-width="3" fill="none"/><use xlink:href="#m" transform="matrix(1,0,0,1,4885.419329274142,1897.7535403259328) translate(66.51234567901236 24.444444444444443)"/><use xlink:href="#s" transform="matrix(1,0,0,1,4885.419329274142,1897.7535403259328) translate(119.04320987654322 24.444444444444443)"/><use xlink:href="#n" transform="matrix(1,0,0,1,4880.419329274142,1940.2535403259328) translate(44.388888888888886 20.444444444444443)"/><use xlink:href="#o" transform="matrix(1,0,0,1,4996.3448690846335,1940.2535403259328) translate(82.80864197530865 20.444444444444443)"/><use xlink:href="#j" transform="matrix(1,0,0,1,4880.419329274142,1977.2535403259328) translate(25.25308641975309 20.444444444444443)"/><use xlink:href="#k" transform="matrix(1,0,0,1,4996.3448690846335,1977.2535403259328) translate(78.5493827160494 20.444444444444443)"/><use xlink:href="#t" transform="matrix(1,0,0,1,4880.419329274142,2014.2535403259328) translate(15.407407407407405 20.444444444444443)"/><use xlink:href="#k" transform="matrix(1,0,0,1,4996.3448690846335,2014.2535403259328) translate(78.5493827160494 20.444444444444443)"/><path d="M4875.42 1703.6a6 6 0 0 1 6-6h328a6 6 0 0 1 6 6v139a6 6 0 0 1-6 6h-328a6 6 0 0 1-6-6z" fill="#fff"/><path d="M4875.42 1703.6a6 6 0 0 1 6-6h328a6 6 0 0 1 6 6v139a6 6 0 0 1-6 6h-328a6 6 0 0 1-6-6zM4875.42 1737.6h340M4991.35 1737.6v111" stroke="#5e5e5e" stroke-width="3" fill="none"/><use xlink:href="#m" transform="matrix(1,0,0,1,4885.419329274142,1697.5845134419776) translate(105.4320987654321 24.444444444444443)"/><use xlink:href="#u" transform="matrix(1,0,0,1,4885.419329274142,1697.5845134419776) translate(157.96296296296296 24.444444444444443)"/><use xlink:href="#n" transform="matrix(1,0,0,1,4880.419329274142,1740.0845134419776) translate(44.388888888888886 20.444444444444443)"/><use xlink:href="#o" transform="matrix(1,0,0,1,4996.3448690846335,1740.0845134419776) translate(82.80864197530865 20.444444444444443)"/><use xlink:href="#j" transform="matrix(1,0,0,1,4880.419329274142,1777.0845134419776) translate(25.25308641975309 20.444444444444443)"/><use xlink:href="#k" transform="matrix(1,0,0,1,4996.3448690846335,1777.0845134419776) translate(78.5493827160494 20.444444444444443)"/><use xlink:href="#x" transform="matrix(1,0,0,1,4880.419329274142,1814.0845134419776) translate(29.574074074074073 20.444444444444443)"/><use xlink:href="#q" transform="matrix(1,0,0,1,4996.3448690846335,1814.0845134419776) translate(7.407407407407419 20.444444444444443)"/><use xlink:href="#r" transform="matrix(1,0,0,1,4996.3448690846335,1814.0845134419776) translate(136.7283950617284 20.444444444444443)"/><path d="M4875.42 1503.4a6 6 0 0 1 6-6h328a6 6 0 0 1 6 6v102a6 6 0 0 1-6 6h-328a6 6 0 0 1-6-6z" fill="#fff"/><path d="M4875.42 1503.4a6 6 0 0 1 6-6h328a6 6 0 0 1 6 6v102a6 6 0 0 1-6 6h-328a6 6 0 0 1-6-6zM4875.42 1537.4h340M4991.35 1537.4v74" stroke="#5e5e5e" stroke-width="3" fill="none"/><use xlink:href="#m" transform="matrix(1,0,0,1,4885.419329274142,1497.4154865580224) translate(84.62962962962962 24.444444444444443)"/><use xlink:href="#w" transform="matrix(1,0,0,1,4885.419329274142,1497.4154865580224) translate(137.16049382716048 24.444444444444443)"/><use xlink:href="#n" transform="matrix(1,0,0,1,4880.419329274142,1539.9154865580224) translate(44.388888888888886 20.444444444444443)"/><use xlink:href="#o" transform="matrix(1,0,0,1,4996.3448690846335,1539.9154865580224) translate(82.80864197530865 20.444444444444443)"/><use xlink:href="#j" transform="matrix(1,0,0,1,4880.419329274142,1576.9154865580224) translate(25.25308641975309 20.444444444444443)"/><use xlink:href="#k" transform="matrix(1,0,0,1,4996.3448690846335,1576.9154865580224) translate(78.5493827160494 20.444444444444443)"/><path d="M4412.92 1917.38h-134.2a6 6 0 0 0-6 6v188a6 6 0 0 1-6 6H4150" stroke="#5e5e5e" stroke-width="2" fill="none"/><path d="M4413.92 1918.38h-1.03v-2h1.02z" stroke="#5e5e5e" stroke-width=".05" fill="#5e5e5e"/><path d="M4134.74 2117.37l14.26-4.64v9.27z" stroke="#5e5e5e" stroke-width="2" fill="#5e5e5e"/><path d="M4412.92 1716.25h-134.2a6 6 0 0 0-6 6v389.12a6 6 0 0 1-6 6H4150" stroke="#5e5e5e" stroke-width="2" fill="none"/><path d="M4413.92 1717.25h-1.03v-2h1.02z" stroke="#5e5e5e" stroke-width=".05" fill="#5e5e5e"/><path d="M4134.74 2117.37l14.26-4.64v9.27z" stroke="#5e5e5e" stroke-width="2" fill="#5e5e5e"/><path d="M4412.92 1517.23h-134.2a6 6 0 0 0-6 6v588.14a6 6 0 0 1-6 6H4150" stroke="#5e5e5e" stroke-width="2" fill="none"/><path d="M4413.92 1518.23h-1.03v-2h1.02z" stroke="#5e5e5e" stroke-width=".05" fill="#5e5e5e"/><path d="M4134.74 2117.37l14.26-4.64v9.27z" stroke="#5e5e5e" stroke-width="2" fill="#5e5e5e"/><path d="M4872.92 1517.4h-77.26a.24.24 0 0 1-.24-.23.24.24 0 0 0-.25-.24h-59.75" stroke="#5e5e5e" stroke-width="2" fill="none"/><path d="M4873.92 1518.4h-1.03v-2h1.02z" stroke="#5e5e5e" stroke-width=".05" fill="#5e5e5e"/><path d="M4720.15 1516.93l14.27-4.64v9.26z" stroke="#5e5e5e" stroke-width="2" fill="#5e5e5e"/><path d="M4872.92 1717.1h-137.5" stroke="#5e5e5e" stroke-width="2" fill="none"/><path d="M4873.92 1718.1h-1.03v-2h1.02z" stroke="#5e5e5e" stroke-width=".05" fill="#5e5e5e"/><path d="M4720.15 1717.1l14.27-4.64v9.27z" stroke="#5e5e5e" stroke-width="2" fill="#5e5e5e"/><path d="M4872.92 1913.17h-137.5" stroke="#5e5e5e" stroke-width="2" fill="none"/><path d="M4873.92 1914.17h-1.03v-2h1.02z" stroke="#5e5e5e" stroke-width=".05" fill="#5e5e5e"/><path d="M4720.15 1913.17l14.27-4.64v9.27z" stroke="#5e5e5e" stroke-width="2" fill="#5e5e5e"/><path d="M3360 2103.53a6 6 0 0 1 6-6h328a6 6 0 0 1 6 6v102a6 6 0 0 1-6 6h-328a6 6 0 0 1-6-6z" fill="#fff"/><path d="M3360 2103.53a6 6 0 0 1 6-6h328a6 6 0 0 1 6 6v102a6 6 0 0 1-6 6h-328a6 6 0 0 1-6-6zM3360 2137.53h340M3475.93 2137.53v74" stroke="#5e5e5e" stroke-width="3" fill="none"/><use xlink:href="#y" transform="matrix(1,0,0,1,3370,2097.530797517102) translate(16.141975308641975 24.444444444444443)"/><use xlink:href="#z" transform="matrix(1,0,0,1,3370,2097.530797517102) translate(68.67283950617283 24.444444444444443)"/><use xlink:href="#A" transform="matrix(1,0,0,1,3370,2097.530797517102) translate(186.2037037037037 24.444444444444443)"/><use xlink:href="#B" transform="matrix(1,0,0,1,3365,2140.030797517102) translate(44.388888888888886 20.444444444444443)"/><use xlink:href="#C" transform="matrix(1,0,0,1,3480.9255398104915,2140.030797517102) translate(82.80864197530865 20.444444444444443)"/><use xlink:href="#D" transform="matrix(1,0,0,1,3365,2177.030797517102) translate(25.25308641975309 20.444444444444443)"/><use xlink:href="#E" transform="matrix(1,0,0,1,3480.9255398104915,2177.030797517102) translate(78.5493827160494 20.444444444444443)"/><path d="M3967.5 2117.37h-132.42a.08.08 0 0 0-.08.08.08.08 0 0 1-.08.08H3720" stroke="#5e5e5e" stroke-width="2" fill="none"/><path d="M3968.5 2117.35l.03 1.02h-1.06v-2h1.1z" stroke="#5e5e5e" stroke-width=".05" fill="#5e5e5e"/><path d="M3704.74 2117.53l14.26-4.63v9.27z" stroke="#5e5e5e" stroke-width="2" fill="#5e5e5e"/><path d="M3360 1903.75a6 6 0 0 1 6-6h328a6 6 0 0 1 6 6v139a6 6 0 0 1-6 6h-328a6 6 0 0 1-6-6z" fill="#fff"/><path d="M3360 1903.75a6 6 0 0 1 6-6h328a6 6 0 0 1 6 6v139a6 6 0 0 1-6 6h-328a6 6 0 0 1-6-6zM3360 1937.75h340M3475.93 1937.75v111" stroke="#5e5e5e" stroke-width="3" fill="none"/><g><use xlink:href="#y" transform="matrix(1,0,0,1,3370,1897.7535403259328) translate(7.7469135802469395 24.444444444444443)"/><use xlink:href="#z" transform="matrix(1,0,0,1,3370,1897.7535403259328) translate(60.27777777777781 24.444444444444443)"/><use xlink:href="#F" transform="matrix(1,0,0,1,3370,1897.7535403259328) translate(177.80864197530866 24.444444444444443)"/></g><g><use xlink:href="#B" transform="matrix(1,0,0,1,3365,1940.2535403259328) translate(44.388888888888886 20.444444444444443)"/></g><g><use xlink:href="#C" transform="matrix(1,0,0,1,3480.9255398104915,1940.2535403259328) translate(82.80864197530865 20.444444444444443)"/></g><g><use xlink:href="#D" transform="matrix(1,0,0,1,3365,1977.2535403259328) translate(25.25308641975309 20.444444444444443)"/></g><g><use xlink:href="#E" transform="matrix(1,0,0,1,3480.9255398104915,1977.2535403259328) translate(78.5493827160494 20.444444444444443)"/></g><g><use xlink:href="#G" transform="matrix(1,0,0,1,3365,2014.2535403259328) translate(11.672839506172835 20.444444444444443)"/></g><g><use xlink:href="#C" transform="matrix(1,0,0,1,3480.9255398104915,2014.2535403259328) translate(82.80864197530865 20.444444444444443)"/></g><path d="M3967.5 2117.37H3841a6 6 0 0 1-6-6v-187.62a6 6 0 0 0-6-6h-109" stroke="#5e5e5e" stroke-width="2" fill="none"/><path d="M3968.5 2117.35l.03 1.02h-1.06v-2h1.1z" stroke="#5e5e5e" stroke-width=".05" fill="#5e5e5e"/><path d="M3704.74 1917.75l14.26-4.63v9.27z" stroke="#5e5e5e" stroke-width="2" fill="#5e5e5e"/><defs><path fill="#333" d="M205 0l-28-72H64L36 0H1l101-248h38L239 0h-34zm-38-99l-47-123c-12 45-31 82-46 123h93" id="H"/><path fill="#333" d="M147-167H93C83-118 77-63 59-23h88v-144zM24-23c26-44 31-102 41-167h113v167h26v95h-29V0H32v72H4v-95h20" id="I"/><path fill="#333" d="M138 0h-27L54-167c3 53 2 111 2 167H25v-190h49c16 56 39 106 51 166 11-61 34-110 50-166h48V0h-31l2-168" id="J"/><path fill="#333" d="M56-190L54-37l88-153h34V0h-30l2-153L59 0H25v-190h31" id="K"/><path fill="#333" d="M57-190v80h85v-80h32V0h-32v-87H57V0H25v-190h32" id="L"/><path fill="#333" d="M96-169c-40 0-48 33-48 73s9 75 48 75c24 0 41-14 43-38l32 2c-6 37-31 61-74 61-59 0-76-41-82-99-10-93 101-131 147-64 4 7 5 14 7 22l-32 3c-4-21-16-35-41-35" id="M"/><path fill="#333" d="M6-190h153v23H98V0H67v-167H6v-23" id="N"/><path fill="#333" d="M115-194c55 1 70 41 70 98S169 2 115 4C84 4 66-9 55-30l1 105H24l-1-265h31l2 30c10-21 28-34 59-34zm-8 174c40 0 45-34 45-75s-6-73-45-74c-42 0-51 32-51 76 0 43 10 73 51 73" id="O"/><path fill="#333" d="M141-36C126-15 110 5 73 4 37 3 15-17 15-53c-1-64 63-63 125-63 3-35-9-54-41-54-24 1-41 7-42 31l-33-3c5-37 33-52 76-52 45 0 72 20 72 64v82c-1 20 7 32 28 27v20c-31 9-61-2-59-35zM48-53c0 20 12 33 32 33 41-3 63-29 60-74-43 2-92-5-92 41" id="P"/><path fill="#333" d="M176-55C176 11 93 0 25 0v-190c61 3 142-15 144 47 1 29-21 35-39 44 27 3 46 16 46 44zm-34 0c0-41-47-30-85-32v64c38-1 85 8 85-32zm-6-83c0-36-44-26-79-28v56c34-2 79 8 79-28" id="Q"/><path fill="#333" d="M20-138c-1-64 85-51 150-52V0h-32v-81H94L39 0H3l60-83c-28-5-43-24-43-55zm33 3c0 40 46 33 85 33v-66c-39 0-85-6-85 33" id="R"/><g id="a"><use transform="matrix(0.06172839506172839,0,0,0.06172839506172839,0,0)" xlink:href="#H"/><use transform="matrix(0.06172839506172839,0,0,0.06172839506172839,14.814814814814813,0)" xlink:href="#I"/><use transform="matrix(0.06172839506172839,0,0,0.06172839506172839,27.777777777777775,0)" xlink:href="#J"/><use transform="matrix(0.06172839506172839,0,0,0.06172839506172839,43.02469135802469,0)" xlink:href="#K"/><use transform="matrix(0.06172839506172839,0,0,0.06172839506172839,55.432098765432094,0)" xlink:href="#L"/><use transform="matrix(0.06172839506172839,0,0,0.06172839506172839,67.65432098765432,0)" xlink:href="#K"/><use transform="matrix(0.06172839506172839,0,0,0.06172839506172839,80.06172839506172,0)" xlink:href="#M"/><use transform="matrix(0.06172839506172839,0,0,0.06172839506172839,91.17283950617283,0)" xlink:href="#N"/><use transform="matrix(0.06172839506172839,0,0,0.06172839506172839,101.29629629629629,0)" xlink:href="#O"/><use transform="matrix(0.06172839506172839,0,0,0.06172839506172839,113.64197530864197,0)" xlink:href="#P"/><use transform="matrix(0.06172839506172839,0,0,0.06172839506172839,125.49382716049384,0)" xlink:href="#N"/><use transform="matrix(0.06172839506172839,0,0,0.06172839506172839,135.6172839506173,0)" xlink:href="#K"/><use transform="matrix(0.06172839506172839,0,0,0.06172839506172839,148.0246913580247,0)" xlink:href="#Q"/><use transform="matrix(0.06172839506172839,0,0,0.06172839506172839,159.81481481481484,0)" xlink:href="#L"/><use transform="matrix(0.06172839506172839,0,0,0.06172839506172839,172.03703703703707,0)" xlink:href="#P"/><use transform="matrix(0.06172839506172839,0,0,0.06172839506172839,184.38271604938274,0)" xlink:href="#R"/></g><path fill="#333" d="M179-190L93 31C79 59 56 82 12 73V49c39 6 53-20 64-50L1-190h34L92-34l54-156h33" id="S"/><path fill="#333" d="M75-87c-4 1-14 3-19 3V0H24v-190h32v83c26-2 31-21 43-41l26-42h33l-61 86L159 0h-35" id="T"/><g id="b"><use transform="matrix(0.06172839506172839,0,0,0.06172839506172839,0,0)" xlink:href="#M"/><use transform="matrix(0.06172839506172839,0,0,0.06172839506172839,11.11111111111111,0)" xlink:href="#N"/><use transform="matrix(0.06172839506172839,0,0,0.06172839506172839,21.234567901234566,0)" xlink:href="#O"/><use transform="matrix(0.06172839506172839,0,0,0.06172839506172839,33.33333333333333,0)" xlink:href="#S"/><use transform="matrix(0.06172839506172839,0,0,0.06172839506172839,44.44444444444444,0)" xlink:href="#T"/><use transform="matrix(0.06172839506172839,0,0,0.06172839506172839,54.38271604938271,0)" xlink:href="#N"/><use transform="matrix(0.06172839506172839,0,0,0.06172839506172839,64.75308641975307,0)" xlink:href="#S"/><use transform="matrix(0.06172839506172839,0,0,0.06172839506172839,75.61728395061728,0)" xlink:href="#O"/><use transform="matrix(0.06172839506172839,0,0,0.06172839506172839,87.96296296296296,0)" xlink:href="#P"/></g><path fill="#333" d="M143 4C61 4 22-44 18-125c-5-107 100-154 193-111 17 8 29 25 37 43l-32 9c-13-25-37-40-76-40-61 0-88 39-88 99 0 61 29 100 91 101 35 0 62-11 79-27v-45h-74v-28h105v86C228-13 192 4 143 4" id="U"/><path fill="#333" d="M232-93c-1 65-40 97-104 97C67 4 28-28 28-90v-158h33c8 89-33 224 67 224 102 0 64-133 71-224h33v155" id="V"/><path fill="#333" d="M33 0v-248h34V0H33" id="W"/><g id="c"><use transform="matrix(0.06172839506172839,0,0,0.06172839506172839,0,0)" xlink:href="#U"/><use transform="matrix(0.06172839506172839,0,0,0.06172839506172839,17.28395061728395,0)" xlink:href="#V"/><use transform="matrix(0.06172839506172839,0,0,0.06172839506172839,33.2716049382716,0)" xlink:href="#W"/></g><path fill="#333" d="M100-194c63 0 86 42 84 106H49c0 40 14 67 53 68 26 1 43-12 49-29l28 8c-11 28-37 45-77 45C44 4 14-33 15-96c1-61 26-98 85-98zm52 81c6-60-76-77-97-28-3 7-6 17-6 28h103" id="X"/><path fill="#333" d="M100-194c62-1 85 37 85 99 1 63-27 99-86 99S16-35 15-95c0-66 28-99 85-99zM99-20c44 1 53-31 53-75 0-43-8-75-51-75s-53 32-53 75 10 74 51 75" id="Y"/><g id="d"><use transform="matrix(0.06172839506172839,0,0,0.06172839506172839,0,0)" xlink:href="#O"/><use transform="matrix(0.06172839506172839,0,0,0.06172839506172839,12.345679012345679,0)" xlink:href="#X"/><use transform="matrix(0.06172839506172839,0,0,0.06172839506172839,24.19753086419753,0)" xlink:href="#I"/><use transform="matrix(0.06172839506172839,0,0,0.06172839506172839,37.160493827160494,0)" xlink:href="#P"/><use transform="matrix(0.06172839506172839,0,0,0.06172839506172839,49.50617283950617,0)" xlink:href="#T"/><use transform="matrix(0.06172839506172839,0,0,0.06172839506172839,59.44444444444444,0)" xlink:href="#N"/><use transform="matrix(0.06172839506172839,0,0,0.06172839506172839,69.5679012345679,0)" xlink:href="#K"/><use transform="matrix(0.06172839506172839,0,0,0.06172839506172839,81.9753086419753,0)" xlink:href="#O"/><use transform="matrix(0.06172839506172839,0,0,0.06172839506172839,94.32098765432099,0)" xlink:href="#Y"/><use transform="matrix(0.06172839506172839,0,0,0.06172839506172839,106.66666666666667,0)" xlink:href="#Q"/><use transform="matrix(0.06172839506172839,0,0,0.06172839506172839,118.20987654320989,0)" xlink:href="#P"/><use transform="matrix(0.06172839506172839,0,0,0.06172839506172839,130.55555555555557,0)" xlink:href="#L"/><use transform="matrix(0.06172839506172839,0,0,0.06172839506172839,142.7777777777778,0)" xlink:href="#K"/><use transform="matrix(0.06172839506172839,0,0,0.06172839506172839,155.18518518518522,0)" xlink:href="#R"/></g><path fill="#333" d="M170-56C169 10 92 0 25 0v-190h32v80c58-2 114-1 113 54zm-34 0c0-38-42-32-79-32v66c38 0 79 5 79-34zm66 56v-190h32V0h-32" id="Z"/><g id="e"><use transform="matrix(0.06172839506172839,0,0,0.06172839506172839,0,0)" xlink:href="#M"/><use transform="matrix(0.06172839506172839,0,0,0.06172839506172839,11.11111111111111,0)" xlink:href="#N"/><use transform="matrix(0.06172839506172839,0,0,0.06172839506172839,21.234567901234566,0)" xlink:href="#O"/><use transform="matrix(0.06172839506172839,0,0,0.06172839506172839,33.33333333333333,0)" xlink:href="#S"/><use transform="matrix(0.06172839506172839,0,0,0.06172839506172839,44.44444444444444,0)" xlink:href="#T"/><use transform="matrix(0.06172839506172839,0,0,0.06172839506172839,54.38271604938271,0)" xlink:href="#N"/><use transform="matrix(0.06172839506172839,0,0,0.06172839506172839,64.75308641975307,0)" xlink:href="#S"/><use transform="matrix(0.06172839506172839,0,0,0.06172839506172839,75.61728395061728,0)" xlink:href="#O"/><use transform="matrix(0.06172839506172839,0,0,0.06172839506172839,87.96296296296296,0)" xlink:href="#Z"/></g><path fill="#333" d="M188-248v28H63V0H30v-248h158" id="aa"/><path fill="#333" d="M217-194c52 0 64 44 64 98S268 2 217 4c-29 1-44-13-55-34l1 105h-30V-31C124-8 108 4 79 4 29 4 16-37 15-94c0-57 15-98 64-100 29 0 44 14 55 33l-1-100h30v101c10-23 24-34 54-34zM89-170c-37 1-41 36-41 75 0 37 3 74 40 74 39 0 45-35 45-76-1-39-6-73-44-73zM207-20c38 0 41-36 41-75 0-38-3-74-40-74-41 0-45 36-45 80 1 38 7 69 44 69" id="ab"/><g id="f"><use transform="matrix(0.06172839506172839,0,0,0.06172839506172839,0,0)" xlink:href="#aa"/><use transform="matrix(0.06172839506172839,0,0,0.06172839506172839,10.74074074074074,0)" xlink:href="#O"/><use transform="matrix(0.06172839506172839,0,0,0.06172839506172839,23.086419753086417,0)" xlink:href="#P"/><use transform="matrix(0.06172839506172839,0,0,0.06172839506172839,35.432098765432094,0)" xlink:href="#ab"/></g><path fill="#333" d="M170-190V0h-32v-167H57V0H25v-190h145" id="ac"/><path fill="#333" d="M153 0v-167H87C74-108 81-27 38 0 29 5 12 6 2 1v-22c51 4 39-64 49-112 5-25 4-25 8-57h126V0h-32" id="ad"/><path fill="#333" d="M165-267c8 67-110 75-125 20-2-7-4-13-4-20h29c1 23 13 35 36 35s34-13 36-35h28zM56-190L54-37l88-153h34V0h-30l2-153L59 0H25v-190h31" id="ae"/><g id="g"><use transform="matrix(0.06172839506172839,0,0,0.06172839506172839,0,0)" xlink:href="#L"/><use transform="matrix(0.06172839506172839,0,0,0.06172839506172839,12.222222222222221,0)" xlink:href="#P"/><use transform="matrix(0.06172839506172839,0,0,0.06172839506172839,24.5679012345679,0)" xlink:href="#ac"/><use transform="matrix(0.06172839506172839,0,0,0.06172839506172839,36.54320987654321,0)" xlink:href="#O"/><use transform="matrix(0.06172839506172839,0,0,0.06172839506172839,48.888888888888886,0)" xlink:href="#P"/><use transform="matrix(0.06172839506172839,0,0,0.06172839506172839,61.23456790123456,0)" xlink:href="#Q"/><use transform="matrix(0.06172839506172839,0,0,0.06172839506172839,72.53086419753086,0)" xlink:href="#ad"/><use transform="matrix(0.06172839506172839,0,0,0.06172839506172839,85.49382716049382,0)" xlink:href="#X"/><use transform="matrix(0.06172839506172839,0,0,0.06172839506172839,97.8395061728395,0)" xlink:href="#L"/><use transform="matrix(0.06172839506172839,0,0,0.06172839506172839,110.06172839506172,0)" xlink:href="#K"/><use transform="matrix(0.06172839506172839,0,0,0.06172839506172839,122.46913580246913,0)" xlink:href="#ae"/></g><path fill="#333" d="M59-47c-2 24 18 29 38 22v24C64 9 27 4 27-40v-127H5v-23h24l9-43h21v43h35v23H59v120" id="af"/><path fill="#333" d="M100-194c63 0 86 42 84 106H49c0 40 14 67 53 68 26 1 43-12 49-29l28 8c-11 28-37 45-77 45C44 4 14-33 15-96c1-61 26-98 85-98zm52 81c6-60-76-77-97-28-3 7-6 17-6 28h103" id="ag"/><path fill="#333" d="M210-169c-67 3-38 105-44 169h-31v-121c0-29-5-50-35-48C34-165 62-65 56 0H25l-1-190h30c1 10-1 24 2 32 10-44 99-50 107 0 11-21 27-35 58-36 85-2 47 119 55 194h-31v-121c0-29-5-49-35-48" id="ah"/><g id="h"><use transform="matrix(0.06172839506172839,0,0,0.06172839506172839,0,0)" xlink:href="#W"/><use transform="matrix(0.06172839506172839,0,0,0.06172839506172839,6.172839506172839,0)" xlink:href="#af"/><use transform="matrix(0.06172839506172839,0,0,0.06172839506172839,12.345679012345679,0)" xlink:href="#ag"/><use transform="matrix(0.06172839506172839,0,0,0.06172839506172839,24.691358024691358,0)" xlink:href="#ah"/></g><path fill="#333" d="M173-56C173 11 92 0 25 0v-190h32v80c58-2 117-2 116 54zm-34 0c0-39-44-31-82-32v66c39 0 82 6 82-34" id="ai"/><g id="i"><use transform="matrix(0.06172839506172839,0,0,0.06172839506172839,0,0)" xlink:href="#ab"/><use transform="matrix(0.06172839506172839,0,0,0.06172839506172839,18.271604938271604,0)" xlink:href="#P"/><use transform="matrix(0.06172839506172839,0,0,0.06172839506172839,30.617283950617285,0)" xlink:href="#T"/><use transform="matrix(0.06172839506172839,0,0,0.06172839506172839,40.55555555555556,0)" xlink:href="#S"/><use transform="matrix(0.06172839506172839,0,0,0.06172839506172839,51.172839506172835,0)" xlink:href="#ad"/><use transform="matrix(0.06172839506172839,0,0,0.06172839506172839,64.1358024691358,0)" xlink:href="#ai"/><use transform="matrix(0.06172839506172839,0,0,0.06172839506172839,73.9506172839506,0)" xlink:href="#N"/><use transform="matrix(0.06172839506172839,0,0,0.06172839506172839,83.82716049382715,0)" xlink:href="#X"/><use transform="matrix(0.06172839506172839,0,0,0.06172839506172839,95.43209876543209,0)" xlink:href="#N"/><use transform="matrix(0.06172839506172839,0,0,0.06172839506172839,105.30864197530863,0)" xlink:href="#P"/></g><path fill="#333" d="M117-194c89-4 53 116 60 194h-32v-121c0-31-8-49-39-48C34-167 62-67 57 0H25l-1-190h30c1 10-1 24 2 32 11-22 29-35 61-36" id="aj"/><path fill="#333" d="M141-36C126-15 110 5 73 4 37 3 15-17 15-53c-1-64 63-63 125-63 3-35-9-54-41-54-24 1-41 7-42 31l-33-3c5-37 33-52 76-52 45 0 72 20 72 64v82c-1 20 7 32 28 27v20c-31 9-61-2-59-35zM48-53c0 20 12 33 32 33 41-3 63-29 60-74-43 2-92-5-92 41" id="ak"/><g id="j"><use transform="matrix(0.06172839506172839,0,0,0.06172839506172839,0,0)" xlink:href="#aj"/><use transform="matrix(0.06172839506172839,0,0,0.06172839506172839,12.345679012345679,0)" xlink:href="#ak"/><use transform="matrix(0.06172839506172839,0,0,0.06172839506172839,24.691358024691358,0)" xlink:href="#ah"/><use transform="matrix(0.06172839506172839,0,0,0.06172839506172839,43.148148148148145,0)" xlink:href="#ag"/></g><path fill="#333" d="M185-189c-5-48-123-54-124 2 14 75 158 14 163 119 3 78-121 87-175 55-17-10-28-26-33-46l33-7c5 56 141 63 141-1 0-78-155-14-162-118-5-82 145-84 179-34 5 7 8 16 11 25" id="al"/><path fill="#333" d="M114-163C36-179 61-72 57 0H25l-1-190h30c1 12-1 29 2 39 6-27 23-49 58-41v29" id="am"/><path fill="#333" d="M24-231v-30h32v30H24zM24 0v-190h32V0H24" id="an"/><path fill="#333" d="M177-190C167-65 218 103 67 71c-23-6-38-20-44-43l32-5c15 47 100 32 89-28v-30C133-14 115 1 83 1 29 1 15-40 15-95c0-56 16-97 71-98 29-1 48 16 59 35 1-10 0-23 2-32h30zM94-22c36 0 50-32 50-73 0-42-14-75-50-75-39 0-46 34-46 75s6 73 46 73" id="ao"/><g id="k"><use transform="matrix(0.06172839506172839,0,0,0.06172839506172839,0,0)" xlink:href="#al"/><use transform="matrix(0.06172839506172839,0,0,0.06172839506172839,14.814814814814813,0)" xlink:href="#af"/><use transform="matrix(0.06172839506172839,0,0,0.06172839506172839,20.98765432098765,0)" xlink:href="#am"/><use transform="matrix(0.06172839506172839,0,0,0.06172839506172839,28.33333333333333,0)" xlink:href="#an"/><use transform="matrix(0.06172839506172839,0,0,0.06172839506172839,33.20987654320987,0)" xlink:href="#aj"/><use transform="matrix(0.06172839506172839,0,0,0.06172839506172839,45.55555555555555,0)" xlink:href="#ao"/></g><path fill="#333" d="M85-194c31 0 48 13 60 33l-1-100h32l1 261h-30c-2-10 0-23-3-31C134-8 116 4 85 4 32 4 16-35 15-94c0-66 23-100 70-100zm9 24c-40 0-46 34-46 75 0 40 6 74 45 74 42 0 51-32 51-76 0-42-9-74-50-73" id="ap"/><path fill="#333" d="M96-169c-40 0-48 33-48 73s9 75 48 75c24 0 41-14 43-38l32 2c-6 37-31 61-74 61-59 0-76-41-82-99-10-93 101-131 147-64 4 7 5 14 7 22l-32 3c-4-21-16-35-41-35" id="aq"/><path fill="#333" d="M100-194c62-1 85 37 85 99 1 63-27 99-86 99S16-35 15-95c0-66 28-99 85-99zM99-20c44 1 53-31 53-75 0-43-8-75-51-75s-53 32-53 75 10 74 51 75" id="ar"/><path fill="#333" d="M190 0L58-211 59 0H30v-248h39L202-35l-2-213h31V0h-41" id="as"/><g id="l"><use transform="matrix(0.06172839506172839,0,0,0.06172839506172839,0,0)" xlink:href="#ap"/><use transform="matrix(0.06172839506172839,0,0,0.06172839506172839,12.345679012345679,0)" xlink:href="#an"/><use transform="matrix(0.06172839506172839,0,0,0.06172839506172839,17.22222222222222,0)" xlink:href="#am"/><use transform="matrix(0.06172839506172839,0,0,0.06172839506172839,24.5679012345679,0)" xlink:href="#ag"/><use transform="matrix(0.06172839506172839,0,0,0.06172839506172839,36.913580246913575,0)" xlink:href="#aq"/><use transform="matrix(0.06172839506172839,0,0,0.06172839506172839,48.02469135802468,0)" xlink:href="#af"/><use transform="matrix(0.06172839506172839,0,0,0.06172839506172839,54.197530864197525,0)" xlink:href="#ar"/><use transform="matrix(0.06172839506172839,0,0,0.06172839506172839,66.5432098765432,0)" xlink:href="#am"/><use transform="matrix(0.06172839506172839,0,0,0.06172839506172839,73.88888888888889,0)" xlink:href="#as"/><use transform="matrix(0.06172839506172839,0,0,0.06172839506172839,89.87654320987654,0)" xlink:href="#ak"/><use transform="matrix(0.06172839506172839,0,0,0.06172839506172839,102.22222222222223,0)" xlink:href="#ah"/><use transform="matrix(0.06172839506172839,0,0,0.06172839506172839,120.67901234567901,0)" xlink:href="#ag"/></g><path fill="#333" d="M30-248c118-7 216 8 213 122C240-48 200 0 122 0H30v-248zM63-27c89 8 146-16 146-99s-60-101-146-95v194" id="at"/><path fill="#333" d="M127-220V0H93v-220H8v-28h204v28h-85" id="au"/><path fill="#333" d="M140-251c81 0 123 46 123 126C263-46 219 4 140 4 59 4 17-45 17-125s42-126 123-126zm0 227c63 0 89-41 89-101s-29-99-89-99c-61 0-89 39-89 99S79-25 140-24" id="av"/><g id="m"><use transform="matrix(0.06172839506172839,0,0,0.06172839506172839,0,0)" xlink:href="#at"/><use transform="matrix(0.06172839506172839,0,0,0.06172839506172839,15.987654320987653,0)" xlink:href="#au"/><use transform="matrix(0.06172839506172839,0,0,0.06172839506172839,29.074074074074073,0)" xlink:href="#av"/></g><g id="n"><use transform="matrix(0.06172839506172839,0,0,0.06172839506172839,0,0)" xlink:href="#an"/><use transform="matrix(0.06172839506172839,0,0,0.06172839506172839,4.876543209876543,0)" xlink:href="#ap"/></g><path fill="#333" d="M30 0v-248h33v221h125V0H30" id="aw"/><g id="o"><use transform="matrix(0.06172839506172839,0,0,0.06172839506172839,0,0)" xlink:href="#aw"/><use transform="matrix(0.06172839506172839,0,0,0.06172839506172839,12.345679012345679,0)" xlink:href="#ar"/><use transform="matrix(0.06172839506172839,0,0,0.06172839506172839,24.691358024691358,0)" xlink:href="#aj"/><use transform="matrix(0.06172839506172839,0,0,0.06172839506172839,37.03703703703704,0)" xlink:href="#ao"/></g><g id="p"><use transform="matrix(0.06172839506172839,0,0,0.06172839506172839,0,0)" xlink:href="#ap"/><use transform="matrix(0.06172839506172839,0,0,0.06172839506172839,12.345679012345679,0)" xlink:href="#an"/><use transform="matrix(0.06172839506172839,0,0,0.06172839506172839,17.22222222222222,0)" xlink:href="#am"/><use transform="matrix(0.06172839506172839,0,0,0.06172839506172839,24.5679012345679,0)" xlink:href="#ag"/><use transform="matrix(0.06172839506172839,0,0,0.06172839506172839,36.913580246913575,0)" xlink:href="#aq"/><use transform="matrix(0.06172839506172839,0,0,0.06172839506172839,48.02469135802468,0)" xlink:href="#af"/><use transform="matrix(0.06172839506172839,0,0,0.06172839506172839,54.197530864197525,0)" xlink:href="#ar"/><use transform="matrix(0.06172839506172839,0,0,0.06172839506172839,66.5432098765432,0)" xlink:href="#am"/></g><path fill="#333" d="M84 4C-5 8 30-112 23-190h32v120c0 31 7 50 39 49 72-2 45-101 50-169h31l1 190h-30c-1-10 1-25-2-33-11 22-28 36-60 37" id="ax"/><path fill="#333" d="M115-194c55 1 70 41 70 98S169 2 115 4C84 4 66-9 55-30l1 105H24l-1-265h31l2 30c10-21 28-34 59-34zm-8 174c40 0 45-34 45-75s-6-73-45-74c-42 0-51 32-51 76 0 43 10 73 51 73" id="ay"/><path fill="#333" d="M24 0v-261h32V0H24" id="az"/><path fill="#333" d="M18-100v-36l175-74v27L42-118l151 64v27" id="aA"/><path fill="#333" d="M68-38c1 34 0 65-14 84H32c9-13 17-26 17-46H33v-38h35" id="aB"/><g id="q"><use transform="matrix(0.06172839506172839,0,0,0.06172839506172839,0,0)" xlink:href="#au"/><use transform="matrix(0.06172839506172839,0,0,0.06172839506172839,12.716049382716047,0)" xlink:href="#ax"/><use transform="matrix(0.06172839506172839,0,0,0.06172839506172839,25.061728395061728,0)" xlink:href="#ay"/><use transform="matrix(0.06172839506172839,0,0,0.06172839506172839,37.407407407407405,0)" xlink:href="#az"/><use transform="matrix(0.06172839506172839,0,0,0.06172839506172839,42.28395061728395,0)" xlink:href="#ag"/><use transform="matrix(0.06172839506172839,0,0,0.06172839506172839,54.629629629629626,0)" xlink:href="#aA"/><use transform="matrix(0.06172839506172839,0,0,0.06172839506172839,67.59259259259258,0)" xlink:href="#aw"/><use transform="matrix(0.06172839506172839,0,0,0.06172839506172839,79.93827160493827,0)" xlink:href="#ar"/><use transform="matrix(0.06172839506172839,0,0,0.06172839506172839,92.28395061728395,0)" xlink:href="#aj"/><use transform="matrix(0.06172839506172839,0,0,0.06172839506172839,104.62962962962963,0)" xlink:href="#ao"/><use transform="matrix(0.06172839506172839,0,0,0.06172839506172839,116.97530864197532,0)" xlink:href="#aB"/></g><path fill="#333" d="M18-27v-27l151-64-151-65v-27l175 74v36" id="aC"/><g id="r"><use transform="matrix(0.06172839506172839,0,0,0.06172839506172839,0,0)" xlink:href="#al"/><use transform="matrix(0.06172839506172839,0,0,0.06172839506172839,14.814814814814813,0)" xlink:href="#af"/><use transform="matrix(0.06172839506172839,0,0,0.06172839506172839,20.98765432098765,0)" xlink:href="#am"/><use transform="matrix(0.06172839506172839,0,0,0.06172839506172839,28.33333333333333,0)" xlink:href="#an"/><use transform="matrix(0.06172839506172839,0,0,0.06172839506172839,33.20987654320987,0)" xlink:href="#aj"/><use transform="matrix(0.06172839506172839,0,0,0.06172839506172839,45.55555555555555,0)" xlink:href="#ao"/><use transform="matrix(0.06172839506172839,0,0,0.06172839506172839,57.90123456790123,0)" xlink:href="#aC"/></g><g id="s"><use transform="matrix(0.06172839506172839,0,0,0.06172839506172839,0,0)" xlink:href="#L"/><use transform="matrix(0.06172839506172839,0,0,0.06172839506172839,12.222222222222221,0)" xlink:href="#P"/><use transform="matrix(0.06172839506172839,0,0,0.06172839506172839,24.5679012345679,0)" xlink:href="#ac"/><use transform="matrix(0.06172839506172839,0,0,0.06172839506172839,36.54320987654321,0)" xlink:href="#O"/><use transform="matrix(0.06172839506172839,0,0,0.06172839506172839,48.888888888888886,0)" xlink:href="#P"/><use transform="matrix(0.06172839506172839,0,0,0.06172839506172839,61.23456790123456,0)" xlink:href="#Q"/><use transform="matrix(0.06172839506172839,0,0,0.06172839506172839,72.53086419753086,0)" xlink:href="#ad"/><use transform="matrix(0.06172839506172839,0,0,0.06172839506172839,85.49382716049382,0)" xlink:href="#X"/><use transform="matrix(0.06172839506172839,0,0,0.06172839506172839,97.8395061728395,0)" xlink:href="#L"/><use transform="matrix(0.06172839506172839,0,0,0.06172839506172839,110.06172839506172,0)" xlink:href="#K"/><use transform="matrix(0.06172839506172839,0,0,0.06172839506172839,122.46913580246913,0)" xlink:href="#R"/></g><path fill="#333" d="M115-194c53 0 69 39 70 98 0 66-23 100-70 100C84 3 66-7 56-30L54 0H23l1-261h32v101c10-23 28-34 59-34zm-8 174c40 0 45-34 45-75 0-40-5-75-45-74-42 0-51 32-51 76 0 43 10 73 51 73" id="aD"/><g id="t"><use transform="matrix(0.06172839506172839,0,0,0.06172839506172839,0,0)" xlink:href="#aj"/><use transform="matrix(0.06172839506172839,0,0,0.06172839506172839,12.345679012345679,0)" xlink:href="#ax"/><use transform="matrix(0.06172839506172839,0,0,0.06172839506172839,24.691358024691358,0)" xlink:href="#ah"/><use transform="matrix(0.06172839506172839,0,0,0.06172839506172839,43.148148148148145,0)" xlink:href="#aD"/><use transform="matrix(0.06172839506172839,0,0,0.06172839506172839,55.49382716049382,0)" xlink:href="#ag"/><use transform="matrix(0.06172839506172839,0,0,0.06172839506172839,67.8395061728395,0)" xlink:href="#am"/></g><g id="u"><use transform="matrix(0.06172839506172839,0,0,0.06172839506172839,0,0)" xlink:href="#T"/><use transform="matrix(0.06172839506172839,0,0,0.06172839506172839,9.93827160493827,0)" xlink:href="#S"/><use transform="matrix(0.06172839506172839,0,0,0.06172839506172839,20.80246913580247,0)" xlink:href="#O"/><use transform="matrix(0.06172839506172839,0,0,0.06172839506172839,33.148148148148145,0)" xlink:href="#M"/><use transform="matrix(0.06172839506172839,0,0,0.06172839506172839,44.25925925925925,0)" xlink:href="#P"/></g><path fill="#333" d="M106-169C34-169 62-67 57 0H25v-261h32l-1 103c12-21 28-36 61-36 89 0 53 116 60 194h-32v-121c2-32-8-49-39-48" id="aE"/><path fill="#333" d="M101-234c-31-9-42 10-38 44h38v23H63V0H32v-167H5v-23h27c-7-52 17-82 69-68v24" id="aF"/><g id="v"><use transform="matrix(0.06172839506172839,0,0,0.06172839506172839,0,0)" xlink:href="#aq"/><use transform="matrix(0.06172839506172839,0,0,0.06172839506172839,11.11111111111111,0)" xlink:href="#aE"/><use transform="matrix(0.06172839506172839,0,0,0.06172839506172839,23.45679012345679,0)" xlink:href="#an"/><use transform="matrix(0.06172839506172839,0,0,0.06172839506172839,28.333333333333336,0)" xlink:href="#ag"/><use transform="matrix(0.06172839506172839,0,0,0.06172839506172839,40.67901234567901,0)" xlink:href="#aF"/><use transform="matrix(0.06172839506172839,0,0,0.06172839506172839,46.851851851851855,0)" xlink:href="#as"/><use transform="matrix(0.06172839506172839,0,0,0.06172839506172839,62.839506172839506,0)" xlink:href="#ak"/><use transform="matrix(0.06172839506172839,0,0,0.06172839506172839,75.18518518518519,0)" xlink:href="#ah"/><use transform="matrix(0.06172839506172839,0,0,0.06172839506172839,93.64197530864197,0)" xlink:href="#ag"/></g><g id="w"><use transform="matrix(0.06172839506172839,0,0,0.06172839506172839,0,0)" xlink:href="#ac"/><use transform="matrix(0.06172839506172839,0,0,0.06172839506172839,11.975308641975309,0)" xlink:href="#O"/><use transform="matrix(0.06172839506172839,0,0,0.06172839506172839,24.320987654320987,0)" xlink:href="#X"/><use transform="matrix(0.06172839506172839,0,0,0.06172839506172839,36.17283950617284,0)" xlink:href="#I"/><use transform="matrix(0.06172839506172839,0,0,0.06172839506172839,49.135802469135804,0)" xlink:href="#J"/><use transform="matrix(0.06172839506172839,0,0,0.06172839506172839,64.38271604938272,0)" xlink:href="#X"/><use transform="matrix(0.06172839506172839,0,0,0.06172839506172839,75.98765432098766,0)" xlink:href="#N"/><use transform="matrix(0.06172839506172839,0,0,0.06172839506172839,85.8641975308642,0)" xlink:href="#P"/></g><g id="x"><use transform="matrix(0.06172839506172839,0,0,0.06172839506172839,0,0)" xlink:href="#aq"/><use transform="matrix(0.06172839506172839,0,0,0.06172839506172839,11.11111111111111,0)" xlink:href="#aE"/><use transform="matrix(0.06172839506172839,0,0,0.06172839506172839,23.45679012345679,0)" xlink:href="#an"/><use transform="matrix(0.06172839506172839,0,0,0.06172839506172839,28.333333333333336,0)" xlink:href="#ag"/><use transform="matrix(0.06172839506172839,0,0,0.06172839506172839,40.67901234567901,0)" xlink:href="#aF"/></g><g id="y"><use transform="matrix(0.06172839506172839,0,0,0.06172839506172839,0,0)" xlink:href="#at"/><use transform="matrix(0.06172839506172839,0,0,0.06172839506172839,15.987654320987653,0)" xlink:href="#au"/><use transform="matrix(0.06172839506172839,0,0,0.06172839506172839,29.074074074074073,0)" xlink:href="#av"/></g><path fill="#333" d="M152-53C154 19 21 22 9-41l28-8c5 36 84 42 81-4-1-29-28-34-58-35v-24c28 0 55-4 55-30 0-19-14-29-34-28-20 0-35 7-38 25l-28-3c4-33 30-46 66-46 37 0 66 15 66 50 0 27-20 41-44 44 27 5 48 17 49 47" id="aG"/><g id="z"><use transform="matrix(0.06172839506172839,0,0,0.06172839506172839,0,0)" xlink:href="#K"/><use transform="matrix(0.06172839506172839,0,0,0.06172839506172839,12.407407407407407,0)" xlink:href="#aG"/><use transform="matrix(0.06172839506172839,0,0,0.06172839506172839,22.59259259259259,0)" xlink:href="#J"/><use transform="matrix(0.06172839506172839,0,0,0.06172839506172839,37.839506172839506,0)" xlink:href="#X"/><use transform="matrix(0.06172839506172839,0,0,0.06172839506172839,50.18518518518518,0)" xlink:href="#L"/><use transform="matrix(0.06172839506172839,0,0,0.06172839506172839,62.407407407407405,0)" xlink:href="#X"/><use transform="matrix(0.06172839506172839,0,0,0.06172839506172839,74.75308641975309,0)" xlink:href="#L"/><use transform="matrix(0.06172839506172839,0,0,0.06172839506172839,86.97530864197532,0)" xlink:href="#K"/><use transform="matrix(0.06172839506172839,0,0,0.06172839506172839,99.38271604938272,0)" xlink:href="#R"/></g><g id="A"><use transform="matrix(0.06172839506172839,0,0,0.06172839506172839,0,0)" xlink:href="#ab"/><use transform="matrix(0.06172839506172839,0,0,0.06172839506172839,18.271604938271604,0)" xlink:href="#P"/><use transform="matrix(0.06172839506172839,0,0,0.06172839506172839,30.617283950617285,0)" xlink:href="#T"/><use transform="matrix(0.06172839506172839,0,0,0.06172839506172839,40.55555555555556,0)" xlink:href="#S"/><use transform="matrix(0.06172839506172839,0,0,0.06172839506172839,51.172839506172835,0)" xlink:href="#ad"/><use transform="matrix(0.06172839506172839,0,0,0.06172839506172839,64.1358024691358,0)" xlink:href="#ai"/><use transform="matrix(0.06172839506172839,0,0,0.06172839506172839,73.9506172839506,0)" xlink:href="#N"/><use transform="matrix(0.06172839506172839,0,0,0.06172839506172839,83.82716049382715,0)" xlink:href="#X"/><use transform="matrix(0.06172839506172839,0,0,0.06172839506172839,95.43209876543209,0)" xlink:href="#N"/><use transform="matrix(0.06172839506172839,0,0,0.06172839506172839,105.30864197530863,0)" xlink:href="#P"/></g><g id="B"><use transform="matrix(0.06172839506172839,0,0,0.06172839506172839,0,0)" xlink:href="#an"/><use transform="matrix(0.06172839506172839,0,0,0.06172839506172839,4.876543209876543,0)" xlink:href="#ap"/></g><g id="C"><use transform="matrix(0.06172839506172839,0,0,0.06172839506172839,0,0)" xlink:href="#aw"/><use transform="matrix(0.06172839506172839,0,0,0.06172839506172839,12.345679012345679,0)" xlink:href="#ar"/><use transform="matrix(0.06172839506172839,0,0,0.06172839506172839,24.691358024691358,0)" xlink:href="#aj"/><use transform="matrix(0.06172839506172839,0,0,0.06172839506172839,37.03703703703704,0)" xlink:href="#ao"/></g><g id="D"><use transform="matrix(0.06172839506172839,0,0,0.06172839506172839,0,0)" xlink:href="#aj"/><use transform="matrix(0.06172839506172839,0,0,0.06172839506172839,12.345679012345679,0)" xlink:href="#ak"/><use transform="matrix(0.06172839506172839,0,0,0.06172839506172839,24.691358024691358,0)" xlink:href="#ah"/><use transform="matrix(0.06172839506172839,0,0,0.06172839506172839,43.148148148148145,0)" xlink:href="#ag"/></g><g id="E"><use transform="matrix(0.06172839506172839,0,0,0.06172839506172839,0,0)" xlink:href="#al"/><use transform="matrix(0.06172839506172839,0,0,0.06172839506172839,14.814814814814813,0)" xlink:href="#af"/><use transform="matrix(0.06172839506172839,0,0,0.06172839506172839,20.98765432098765,0)" xlink:href="#am"/><use transform="matrix(0.06172839506172839,0,0,0.06172839506172839,28.33333333333333,0)" xlink:href="#an"/><use transform="matrix(0.06172839506172839,0,0,0.06172839506172839,33.20987654320987,0)" xlink:href="#aj"/><use transform="matrix(0.06172839506172839,0,0,0.06172839506172839,45.55555555555555,0)" xlink:href="#ao"/></g><g id="F"><use transform="matrix(0.06172839506172839,0,0,0.06172839506172839,0,0)" xlink:href="#L"/><use transform="matrix(0.06172839506172839,0,0,0.06172839506172839,12.222222222222221,0)" xlink:href="#P"/><use transform="matrix(0.06172839506172839,0,0,0.06172839506172839,24.5679012345679,0)" xlink:href="#ac"/><use transform="matrix(0.06172839506172839,0,0,0.06172839506172839,36.54320987654321,0)" xlink:href="#O"/><use transform="matrix(0.06172839506172839,0,0,0.06172839506172839,48.888888888888886,0)" xlink:href="#P"/><use transform="matrix(0.06172839506172839,0,0,0.06172839506172839,61.23456790123456,0)" xlink:href="#Q"/><use transform="matrix(0.06172839506172839,0,0,0.06172839506172839,72.53086419753086,0)" xlink:href="#ad"/><use transform="matrix(0.06172839506172839,0,0,0.06172839506172839,85.49382716049382,0)" xlink:href="#X"/><use transform="matrix(0.06172839506172839,0,0,0.06172839506172839,97.8395061728395,0)" xlink:href="#L"/><use transform="matrix(0.06172839506172839,0,0,0.06172839506172839,110.06172839506172,0)" xlink:href="#K"/><use transform="matrix(0.06172839506172839,0,0,0.06172839506172839,122.46913580246913,0)" xlink:href="#R"/></g><path fill="#333" d="M179-190L93 31C79 59 56 82 12 73V49c39 6 53-20 64-50L1-190h34L92-34l54-156h33" id="aH"/><g id="G"><use transform="matrix(0.06172839506172839,0,0,0.06172839506172839,0,0)" xlink:href="#aF"/><use transform="matrix(0.06172839506172839,0,0,0.06172839506172839,6.172839506172839,0)" xlink:href="#ak"/><use transform="matrix(0.06172839506172839,0,0,0.06172839506172839,18.51851851851852,0)" xlink:href="#aq"/><use transform="matrix(0.06172839506172839,0,0,0.06172839506172839,29.62962962962963,0)" xlink:href="#ax"/><use transform="matrix(0.06172839506172839,0,0,0.06172839506172839,41.97530864197531,0)" xlink:href="#az"/><use transform="matrix(0.06172839506172839,0,0,0.06172839506172839,46.851851851851855,0)" xlink:href="#af"/><use transform="matrix(0.06172839506172839,0,0,0.06172839506172839,53.0246913580247,0)" xlink:href="#aH"/><use transform="matrix(0.06172839506172839,0,0,0.06172839506172839,64.13580246913581,0)" xlink:href="#W"/><use transform="matrix(0.06172839506172839,0,0,0.06172839506172839,70.30864197530865,0)" xlink:href="#ap"/></g></defs></g></svg>