<svg xmlns="http://www.w3.org/2000/svg" xmlns:xlink="http://www.w3.org/1999/xlink" xmlns:lucid="lucid" width="2063.06" height="1184"><g transform="translate(361.5000000050459 -1178.4999999971203)" lucid:page-tab-id="0_0"><path d="M-360 1187a6 6 0 0 1 6-6h2048a6 6 0 0 1 6 6v1168a6 6 0 0 1-6 6H-354a6 6 0 0 1-6-6z" stroke="#5e5e5e" stroke-width="3" fill="#fff"/><path d="M-358.56 1267a6 6 0 0 1 6-6H1694a6 6 0 0 1 6 6v1088a6 6 0 0 1-6 6H-352.56a6 6 0 0 1-6-6z" stroke="#5e5e5e" stroke-width="3" fill="#fff"/><path d="M-358.5 1267a6 6 0 0 1 6-6h2046.56a6 6 0 0 1 6 6v37.8a6 6 0 0 1-6 6H-352.5a6 6 0 0 1-6-6z" stroke="#5e5e5e" stroke-width="3" fill="#fff"/><use xlink:href="#a" transform="matrix(1,0,0,1,-346.5,1273) translate(981.1111111111111 19.40277777777778)"/><path d="M-358.5 1186a6 6 0 0 1 6-6h2046.56a6 6 0 0 1 6 6v69a6 6 0 0 1-6 6H-352.5a6 6 0 0 1-6-6z" stroke="#5e5e5e" stroke-width="3" fill="#fff"/><path d="M-339.75 1201.5a.25.25 0 0 1 .25-.25h39a.25.25 0 0 1 .25.25.25.25 0 0 1-.25.25h-39a.25.25 0 0 1-.25-.25zM-339.75 1221a.25.25 0 0 1 .25-.25h39a.25.25 0 0 1 .25.25.25.25 0 0 1-.25.25h-39a.25.25 0 0 1-.25-.25zM-339.75 1240.5a.25.25 0 0 1 .25-.25h39a.25.25 0 0 1 .25.25.25.25 0 0 1-.25.25h-39a.25.25 0 0 1-.25-.25z" stroke="#5e5e5e" stroke-width=".5" fill="none"/><path d="M-278.5 1180.75a.75.75 0 0 1 .75.75v78a.75.75 0 0 1-.75.75.75.75 0 0 1-.75-.75v-78a.75.75 0 0 1 .75-.75z" stroke="#5e5e5e" stroke-width="1.5" fill="none"/><path d="M1680 1220.5c0 16.57-13.43 30-30 30s-30-13.43-30-30 13.43-30 30-30 30 13.43 30 30z" stroke="#5e5e5e" stroke-width="3" fill="#fff"/><use xlink:href="#b" transform="matrix(1,0,0,1,1625,1195.5) translate(17.006172839506174 30.27777777777778)"/><path d="M-358.5 1187a6 6 0 0 1 6-6H-226a6 6 0 0 1 6 6v57.5a6 6 0 0 1-6 6h-126.5a6 6 0 0 1-6-6z" stroke="#000" stroke-opacity="0" stroke-width="4" fill="#fff" fill-opacity="0"/><use xlink:href="#c" transform="matrix(1,0,0,1,-353.5,1186) translate(55.858024691358025 36.138888888888886)"/><path d="M1500 1196.5a6 6 0 0 1 6-6h188a6 6 0 0 1 6 6v48.5a6 6 0 0 1-6 6h-188a6 6 0 0 1-6-6z" stroke="#000" stroke-opacity="0" stroke-width="3" fill="#fff" fill-opacity="0"/><use xlink:href="#d" transform="matrix(1,0,0,1,1505,1195.5) translate(86.35802469135803 31.263888888888886)"/><path d="M600 1267a6 6 0 0 1 6-6h228a6 6 0 0 1 6 6v48a6 6 0 0 1-6 6H606a6 6 0 0 1-6-6z" stroke="#000" stroke-opacity="0" stroke-width="3" fill="#fff" fill-opacity="0"/><use xlink:href="#e" transform="matrix(1,0,0,1,605,1266) translate(106.35802469135803 31.138888888888886)"/><path d="M-101.73 1406a6 6 0 0 1 6-6h1527.78a6 6 0 0 1 6 6v949a6 6 0 0 1-6 6H-95.73a6 6 0 0 1-6-6z" stroke="#5e5e5e" stroke-width="3" fill="#fff"/><path d="M1198.05 2086a6 6 0 0 1 6-6h228a6 6 0 0 1 6 6v48a6 6 0 0 1-6 6h-228a6 6 0 0 1-6-6z" stroke="#000" stroke-opacity="0" stroke-width="3" fill="#fff" fill-opacity="0"/><use xlink:href="#f" transform="matrix(1,0,0,1,1203.0462373948926,2085) translate(106.35802469135803 31.138888888888886)"/><path d="M-101.73 1406a6 6 0 0 1 6-6h1527.78a6 6 0 0 1 6 6v48a6 6 0 0 1-6 6H-95.73a6 6 0 0 1-6-6z" stroke="#5e5e5e" stroke-width="3" fill="#fff"/><path d="M-101.73 1406a6 6 0 0 1 6-6H-46a6 6 0 0 1 6 6v48a6 6 0 0 1-6 6h-49.73a6 6 0 0 1-6-6z" stroke="#5e5e5e" stroke-width="3" fill="#fff"/><path d="M-89.25 1430a.75.75 0 0 1 .75-.75h37a.75.75 0 0 1 .75.75.75.75 0 0 1-.75.75h-37a.75.75 0 0 1-.75-.75z" stroke="#5e5e5e" stroke-width="1.5" fill="none"/><path d="M-40 1406a6 6 0 0 1 6-6h1466.05a6 6 0 0 1 6 6v48a6 6 0 0 1-6 6H-34a6 6 0 0 1-6-6z" stroke="#5e5e5e" stroke-width="3" fill="#fff"/><use xlink:href="#g" transform="matrix(1,0,0,1,-28,1412) translate(0 22.27777777777778)"/><use xlink:href="#h" transform="matrix(1,0,0,1,-28,1412) translate(95.06172839506173 22.27777777777778)"/><path d="M-101.73 1466a6 6 0 0 1 6-6h1527.78a6 6 0 0 1 6 6v48a6 6 0 0 1-6 6H-95.73a6 6 0 0 1-6-6z" stroke="#5e5e5e" stroke-width="3" fill="#fff"/><use xlink:href="#i" transform="matrix(1,0,0,1,-89.72722423915366,1472) translate(728.6172839506173 22.27777777777778)"/><path d="M-101.73 1526a6 6 0 0 1 6-6h1527.78a6 6 0 0 1 6 6v48a6 6 0 0 1-6 6H-95.73a6 6 0 0 1-6-6z" stroke="#5e5e5e" stroke-width="3" fill="#fff"/><path d="M-100.86 1526a6 6 0 0 1 6-6h49.72a6 6 0 0 1 6 6v48a6 6 0 0 1-6 6h-49.72a6 6 0 0 1-6-6z" stroke="#5e5e5e" stroke-width="3" fill="#fff"/><path d="M-89.25 1550a.75.75 0 0 1 .75-.75h37a.75.75 0 0 1 .75.75.75.75 0 0 1-.75.75h-37a.75.75 0 0 1-.75-.75z" stroke="#5e5e5e" stroke-width="1.5" fill="none"/><path d="M-70 1569.25a.75.75 0 0 1-.75-.75v-37a.75.75 0 0 1 .75-.75.75.75 0 0 1 .75.75v37a.75.75 0 0 1-.75.75z" stroke="#5e5e5e" stroke-width="1.5" fill="none"/><path d="M-39.14 1526a6 6 0 0 1 6-6H1432.9a6 6 0 0 1 6 6v48a6 6 0 0 1-6 6H-33.13a6 6 0 0 1-6-6z" stroke="#5e5e5e" stroke-width="3" fill="#fff"/><use xlink:href="#g" transform="matrix(1,0,0,1,-27.13638788042317,1532) translate(0 22.27777777777778)"/><use xlink:href="#j" transform="matrix(1,0,0,1,-27.13638788042317,1532) translate(95.06172839506173 22.27777777777778)"/><defs><path fill="#333" d="M127-220V0H93v-220H8v-28h204v28h-85" id="k"/><path fill="#333" d="M179-190L93 31C79 59 56 82 12 73V49c39 6 53-20 64-50L1-190h34L92-34l54-156h33" id="l"/><path fill="#333" d="M153 0v-167H87C74-108 81-27 38 0 29 5 12 6 2 1v-22c51 4 39-64 49-112 5-25 4-25 8-57h126V0h-32" id="m"/><path fill="#333" d="M105-20c41 1 53-27 53-68 0-40-9-69-50-69s-54 27-54 69c0 40 12 68 51 68zM47-134c10-28 31-47 68-47 56 0 76 33 76 92 1 60-28 90-86 93C-9 9 1-201 72-238c29-15 73-21 110-26v28c-67 12-144 10-135 102" id="n"/><path fill="#333" d="M141-36C126-15 110 5 73 4 37 3 15-17 15-53c-1-64 63-63 125-63 3-35-9-54-41-54-24 1-41 7-42 31l-33-3c5-37 33-52 76-52 45 0 72 20 72 64v82c-1 20 7 32 28 27v20c-31 9-61-2-59-35zM48-53c0 20 12 33 32 33 41-3 63-29 60-74-43 2-92-5-92 41" id="o"/><path fill="#333" d="M115-194c55 1 70 41 70 98S169 2 115 4C84 4 66-9 55-30l1 105H24l-1-265h31l2 30c10-21 28-34 59-34zm-8 174c40 0 45-34 45-75s-6-73-45-74c-42 0-51 32-51 76 0 43 10 73 51 73" id="p"/><g id="a"><use transform="matrix(0.06172839506172839,0,0,0.06172839506172839,0,0)" xlink:href="#k"/><use transform="matrix(0.06172839506172839,0,0,0.06172839506172839,12.28395061728395,0)" xlink:href="#l"/><use transform="matrix(0.06172839506172839,0,0,0.06172839506172839,22.901234567901234,0)" xlink:href="#m"/><use transform="matrix(0.06172839506172839,0,0,0.06172839506172839,35.864197530864196,0)" xlink:href="#n"/><use transform="matrix(0.06172839506172839,0,0,0.06172839506172839,48.08641975308642,0)" xlink:href="#o"/><use transform="matrix(0.06172839506172839,0,0,0.06172839506172839,60.432098765432094,0)" xlink:href="#p"/></g><path fill="#333" d="M232-93c-1 65-40 97-104 97C67 4 28-28 28-90v-158h33c8 89-33 224 67 224 102 0 64-133 71-224h33v155" id="q"/><use transform="matrix(0.06172839506172839,0,0,0.06172839506172839,0,0)" xlink:href="#q" id="b"/><path fill="#e81313" d="M27 0v-27h64v-190l-56 39v-29l58-41h29v221h61V0H27" id="r"/><use transform="matrix(0.08641975308641973,0,0,0.08641975308641973,0,0)" xlink:href="#r" id="c"/><path fill="#e81313" d="M101-251c82-7 93 87 43 132L82-64C71-53 59-42 53-27h129V0H18c2-99 128-94 128-182 0-28-16-43-45-43s-46 15-49 41l-32-3c6-41 34-60 81-64" id="s"/><use transform="matrix(0.08641975308641973,0,0,0.08641975308641973,0,0)" xlink:href="#s" id="d"/><path fill="#e81313" d="M126-127c33 6 58 20 58 59 0 88-139 92-164 29-3-8-5-16-6-25l32-3c6 27 21 44 54 44 32 0 52-15 52-46 0-38-36-46-79-43v-28c39 1 72-4 72-42 0-27-17-43-46-43-28 0-47 15-49 41l-32-3c6-42 35-63 81-64 48-1 79 21 79 65 0 36-21 52-52 59" id="t"/><use transform="matrix(0.08641975308641973,0,0,0.08641975308641973,0,0)" xlink:href="#t" id="e"/><path fill="#e81313" d="M155-56V0h-30v-56H8v-25l114-167h33v167h35v25h-35zm-30-156c-27 46-58 90-88 131h88v-131" id="u"/><use transform="matrix(0.08641975308641973,0,0,0.08641975308641973,0,0)" xlink:href="#u" id="f"/><path fill="#333" d="M197 0v-219H63V0H30v-248h201V0h-34" id="v"/><path fill="#333" d="M100-194c63 0 86 42 84 106H49c0 40 14 67 53 68 26 1 43-12 49-29l28 8c-11 28-37 45-77 45C44 4 14-33 15-96c1-61 26-98 85-98zm52 81c6-60-76-77-97-28-3 7-6 17-6 28h103" id="w"/><path fill="#333" d="M96-169c-40 0-48 33-48 73s9 75 48 75c24 0 41-14 43-38l32 2c-6 37-31 61-74 61-59 0-76-41-82-99-10-93 101-131 147-64 4 7 5 14 7 22l-32 3c-4-21-16-35-41-35" id="x"/><path fill="#333" d="M100-194c62-1 85 37 85 99 1 63-27 99-86 99S16-35 15-95c0-66 28-99 85-99zM99-20c44 1 53-31 53-75 0-43-8-75-51-75s-53 32-53 75 10 74 51 75" id="y"/><path fill="#333" d="M57-190v80h85v-80h32V0h-32v-87H57V0H25v-190h32" id="z"/><g id="g"><use transform="matrix(0.06172839506172839,0,0,0.06172839506172839,0,0)" xlink:href="#v"/><use transform="matrix(0.06172839506172839,0,0,0.06172839506172839,15.925925925925926,0)" xlink:href="#w"/><use transform="matrix(0.06172839506172839,0,0,0.06172839506172839,28.271604938271604,0)" xlink:href="#p"/><use transform="matrix(0.06172839506172839,0,0,0.06172839506172839,40.617283950617285,0)" xlink:href="#x"/><use transform="matrix(0.06172839506172839,0,0,0.06172839506172839,51.9753086419753,0)" xlink:href="#y"/><use transform="matrix(0.06172839506172839,0,0,0.06172839506172839,64.32098765432099,0)" xlink:href="#z"/><use transform="matrix(0.06172839506172839,0,0,0.06172839506172839,76.54320987654322,0)" xlink:href="#o"/></g><path fill="#333" d="M27 0v-27h64v-190l-56 39v-29l58-41h29v221h61V0H27" id="A"/><use transform="matrix(0.06172839506172839,0,0,0.06172839506172839,0,0)" xlink:href="#A" id="h"/><path fill="#333" d="M30 0v-248h30L58-37l132-211h39V0h-30l1-209L70 0H30" id="B"/><path fill="#333" d="M217-194c52 0 64 44 64 98S268 2 217 4c-29 1-44-13-55-34l1 105h-30V-31C124-8 108 4 79 4 29 4 16-37 15-94c0-57 15-98 64-100 29 0 44 14 55 33l-1-100h30v101c10-23 24-34 54-34zM89-170c-37 1-41 36-41 75 0 37 3 74 40 74 39 0 45-35 45-76-1-39-6-73-44-73zM207-20c38 0 41-36 41-75 0-38-3-74-40-74-41 0-45 36-45 80 1 38 7 69 44 69" id="C"/><g id="i"><use transform="matrix(0.06172839506172839,0,0,0.06172839506172839,0,0)" xlink:href="#B"/><use transform="matrix(0.06172839506172839,0,0,0.06172839506172839,15.925925925925926,0)" xlink:href="#z"/><use transform="matrix(0.06172839506172839,0,0,0.06172839506172839,28.148148148148145,0)" xlink:href="#C"/><use transform="matrix(0.06172839506172839,0,0,0.06172839506172839,46.419753086419746,0)" xlink:href="#y"/></g><path fill="#333" d="M101-251c82-7 93 87 43 132L82-64C71-53 59-42 53-27h129V0H18c2-99 128-94 128-182 0-28-16-43-45-43s-46 15-49 41l-32-3c6-41 34-60 81-64" id="D"/><use transform="matrix(0.06172839506172839,0,0,0.06172839506172839,0,0)" xlink:href="#D" id="j"/></defs></g></svg>