<svg xmlns="http://www.w3.org/2000/svg" xmlns:xlink="http://www.w3.org/1999/xlink" xmlns:lucid="lucid" width="2063.06" height="1184"><g transform="translate(246.00716009384266 198.6666666695465)" lucid:page-tab-id="0_0"><path d="M-244.5-190.17a6 6 0 0 1 6-6h2048a6 6 0 0 1 6 6v1168a6 6 0 0 1-6 6h-2048a6 6 0 0 1-6-6z" stroke="#5e5e5e" stroke-width="3" fill="#fff"/><path d="M-243.07-110.17a6 6 0 0 1 6-6H1809.5a6 6 0 0 1 6 6v1088a6 6 0 0 1-6 6H-237.08a6 6 0 0 1-6-6z" stroke="#5e5e5e" stroke-width="3" fill="#fff"/><path d="M-243-110.17a6 6 0 0 1 6-6h2046.56a6 6 0 0 1 6 6v37.8a6 6 0 0 1-6 6H-237a6 6 0 0 1-6-6z" stroke="#5e5e5e" stroke-width="3" fill="#fff"/><use xlink:href="#a" transform="matrix(1,0,0,1,-231.0071600887968,-104.16666666666674) translate(981.1111111111111 19.40277777777778)"/><path d="M-243-191.17a6 6 0 0 1 6-6h2046.56a6 6 0 0 1 6 6v69a6 6 0 0 1-6 6H-237a6 6 0 0 1-6-6z" stroke="#5e5e5e" stroke-width="3" fill="#fff"/><path d="M-224.26-175.67a.25.25 0 0 1 .25-.25h39a.25.25 0 0 1 .24.25.25.25 0 0 1-.25.25h-39a.25.25 0 0 1-.26-.25zM-224.26-156.17a.25.25 0 0 1 .25-.25h39a.25.25 0 0 1 .24.25.25.25 0 0 1-.25.25h-39a.25.25 0 0 1-.26-.25zM-224.26-136.67a.25.25 0 0 1 .25-.25h39a.25.25 0 0 1 .24.25.25.25 0 0 1-.25.25h-39a.25.25 0 0 1-.26-.25z" stroke="#5e5e5e" stroke-width=".5" fill="none"/><path d="M-163-196.42a.75.75 0 0 1 .74.75v78a.75.75 0 0 1-.75.75.75.75 0 0 1-.76-.75v-78a.75.75 0 0 1 .75-.75z" stroke="#5e5e5e" stroke-width="1.5" fill="none"/><path d="M1795.5-156.67c0 16.57-13.44 30-30 30-16.58 0-30-13.43-30-30s13.42-30 30-30c16.56 0 30 13.43 30 30z" stroke="#5e5e5e" stroke-width="3" fill="#fff"/><use xlink:href="#b" transform="matrix(1,0,0,1,1740.4928399112032,-181.66666666666674) translate(17.006172839506174 30.27777777777778)"/><path d="M-243-190.17a6 6 0 0 1 6-6h126.5a6 6 0 0 1 6 6v57.5a6 6 0 0 1-6 6H-237a6 6 0 0 1-6-6z" stroke="#000" stroke-opacity="0" stroke-width="4" fill="#fff" fill-opacity="0"/><use xlink:href="#c" transform="matrix(1,0,0,1,-238.0071600887968,-191.16666666666674) translate(55.858024691358025 36.138888888888886)"/><path d="M1615.5-180.67a6 6 0 0 1 6-6h188a6 6 0 0 1 6 6v48.5a6 6 0 0 1-6 6h-188a6 6 0 0 1-6-6z" stroke="#000" stroke-opacity="0" stroke-width="3" fill="#fff" fill-opacity="0"/><use xlink:href="#d" transform="matrix(1,0,0,1,1620.4928399112032,-181.66666666666674) translate(86.35802469135803 31.263888888888886)"/><path d="M715.5-110.17a6 6 0 0 1 6-6h228a6 6 0 0 1 6 6v48a6 6 0 0 1-6 6h-228a6 6 0 0 1-6-6z" stroke="#000" stroke-opacity="0" stroke-width="3" fill="#fff" fill-opacity="0"/><use xlink:href="#e" transform="matrix(1,0,0,1,720.4928399112032,-111.16666666666674) translate(106.35802469135803 31.138888888888886)"/><path d="M13.77 28.83a6 6 0 0 1 6-6h1527.77a6 6 0 0 1 6 6v949a6 6 0 0 1-6 6H19.77a6 6 0 0 1-6-6z" stroke="#5e5e5e" stroke-width="3" fill="#fff"/><path d="M1320 146a6 6 0 0 1 6-6h228a6 6 0 0 1 6 6v48a6 6 0 0 1-6 6h-228a6 6 0 0 1-6-6z" stroke="#000" stroke-opacity="0" stroke-width="3" fill="#fff" fill-opacity="0"/><use xlink:href="#f" transform="matrix(1,0,0,1,1325,145) translate(106.35802469135803 31.138888888888886)"/><defs><path fill="#333" d="M127-220V0H93v-220H8v-28h204v28h-85" id="g"/><path fill="#333" d="M179-190L93 31C79 59 56 82 12 73V49c39 6 53-20 64-50L1-190h34L92-34l54-156h33" id="h"/><path fill="#333" d="M153 0v-167H87C74-108 81-27 38 0 29 5 12 6 2 1v-22c51 4 39-64 49-112 5-25 4-25 8-57h126V0h-32" id="i"/><path fill="#333" d="M105-20c41 1 53-27 53-68 0-40-9-69-50-69s-54 27-54 69c0 40 12 68 51 68zM47-134c10-28 31-47 68-47 56 0 76 33 76 92 1 60-28 90-86 93C-9 9 1-201 72-238c29-15 73-21 110-26v28c-67 12-144 10-135 102" id="j"/><path fill="#333" d="M141-36C126-15 110 5 73 4 37 3 15-17 15-53c-1-64 63-63 125-63 3-35-9-54-41-54-24 1-41 7-42 31l-33-3c5-37 33-52 76-52 45 0 72 20 72 64v82c-1 20 7 32 28 27v20c-31 9-61-2-59-35zM48-53c0 20 12 33 32 33 41-3 63-29 60-74-43 2-92-5-92 41" id="k"/><path fill="#333" d="M115-194c55 1 70 41 70 98S169 2 115 4C84 4 66-9 55-30l1 105H24l-1-265h31l2 30c10-21 28-34 59-34zm-8 174c40 0 45-34 45-75s-6-73-45-74c-42 0-51 32-51 76 0 43 10 73 51 73" id="l"/><g id="a"><use transform="matrix(0.06172839506172839,0,0,0.06172839506172839,0,0)" xlink:href="#g"/><use transform="matrix(0.06172839506172839,0,0,0.06172839506172839,12.28395061728395,0)" xlink:href="#h"/><use transform="matrix(0.06172839506172839,0,0,0.06172839506172839,22.901234567901234,0)" xlink:href="#i"/><use transform="matrix(0.06172839506172839,0,0,0.06172839506172839,35.864197530864196,0)" xlink:href="#j"/><use transform="matrix(0.06172839506172839,0,0,0.06172839506172839,48.08641975308642,0)" xlink:href="#k"/><use transform="matrix(0.06172839506172839,0,0,0.06172839506172839,60.432098765432094,0)" xlink:href="#l"/></g><path fill="#333" d="M232-93c-1 65-40 97-104 97C67 4 28-28 28-90v-158h33c8 89-33 224 67 224 102 0 64-133 71-224h33v155" id="m"/><use transform="matrix(0.06172839506172839,0,0,0.06172839506172839,0,0)" xlink:href="#m" id="b"/><path fill="#e81313" d="M27 0v-27h64v-190l-56 39v-29l58-41h29v221h61V0H27" id="n"/><use transform="matrix(0.08641975308641973,0,0,0.08641975308641973,0,0)" xlink:href="#n" id="c"/><path fill="#e81313" d="M101-251c82-7 93 87 43 132L82-64C71-53 59-42 53-27h129V0H18c2-99 128-94 128-182 0-28-16-43-45-43s-46 15-49 41l-32-3c6-41 34-60 81-64" id="o"/><use transform="matrix(0.08641975308641973,0,0,0.08641975308641973,0,0)" xlink:href="#o" id="d"/><path fill="#e81313" d="M126-127c33 6 58 20 58 59 0 88-139 92-164 29-3-8-5-16-6-25l32-3c6 27 21 44 54 44 32 0 52-15 52-46 0-38-36-46-79-43v-28c39 1 72-4 72-42 0-27-17-43-46-43-28 0-47 15-49 41l-32-3c6-42 35-63 81-64 48-1 79 21 79 65 0 36-21 52-52 59" id="p"/><use transform="matrix(0.08641975308641973,0,0,0.08641975308641973,0,0)" xlink:href="#p" id="e"/><path fill="#e81313" d="M155-56V0h-30v-56H8v-25l114-167h33v167h35v25h-35zm-30-156c-27 46-58 90-88 131h88v-131" id="q"/><use transform="matrix(0.08641975308641973,0,0,0.08641975308641973,0,0)" xlink:href="#q" id="f"/></defs></g></svg>